<svg width="20" height="20" viewBox="0 0 20 20" fill="none" xmlns="http://www.w3.org/2000/svg">
<path d="M16.5351 12.2956C15.6752 12.1895 14.8213 12.039 13.9769 11.8449C13.7708 11.776 13.5503 11.7615 13.3369 11.8027C13.1235 11.844 12.9244 11.9396 12.7588 12.0804C12.5436 12.2997 11.9223 12.9128 11.2767 13.5463C8.96345 12.4091 7.09268 10.5369 5.95731 8.22285C6.5867 7.57722 7.17548 6.96002 7.41506 6.74481C7.55583 6.57919 7.65147 6.38005 7.69273 6.16664C7.73399 5.95323 7.71947 5.73278 7.65057 5.52663C7.45616 4.68092 7.30572 3.8257 7.19985 2.96441C7.18851 2.85474 7.15495 2.74852 7.10122 2.65223C7.04749 2.55594 6.97471 2.4716 6.88733 2.40436C6.79995 2.33711 6.69979 2.28836 6.59295 2.26108C6.48611 2.23381 6.37484 2.22857 6.26592 2.24569H2.80631C2.66351 2.25859 2.52983 2.32145 2.42881 2.4232C2.3278 2.52496 2.26592 2.6591 2.25407 2.80199C2.03074 5.92457 3.77273 9.26642 4.126 9.90799V9.93235L4.17472 10.0257C5.43933 12.219 7.26017 14.0399 9.45346 15.3045V15.3045L9.63213 15.406C10.4442 15.8364 13.6724 17.4607 16.6894 17.2373C16.8337 17.2273 16.9698 17.1662 17.0732 17.0651C17.1766 16.9639 17.2407 16.8292 17.2538 16.6851V13.2295C17.2709 13.1206 17.2657 13.0093 17.2384 12.9025C17.2112 12.7957 17.1624 12.6955 17.0952 12.6081C17.0279 12.5207 16.9436 12.448 16.8473 12.3942C16.751 12.3405 16.6448 12.3069 16.5351 12.2956Z" stroke="#111111" stroke-width="0.890202" stroke-linecap="round" stroke-linejoin="round"/>
</svg>
