<svg width="19" height="20" viewBox="0 0 19 20" fill="none" xmlns="http://www.w3.org/2000/svg">
<path d="M0.796496 0C0.585252 0 0.382661 0.0839165 0.233289 0.233289C0.0839165 0.382661 0 0.585252 0 0.796496C0 1.00774 0.0839165 1.21033 0.233289 1.3597C0.382661 1.50908 0.585252 1.59299 0.796496 1.59299H1.18837C1.36133 1.59329 1.52948 1.64988 1.66743 1.7542C1.80538 1.85853 1.90562 2.00491 1.95301 2.17125L4.4795 11.0124C4.62239 11.5113 4.92385 11.9501 5.33828 12.2625C5.75272 12.575 6.2576 12.7439 6.77659 12.7439H14.055C14.5326 12.744 14.9993 12.6009 15.3949 12.3332C15.7904 12.0654 16.0966 11.6853 16.274 11.2418L18.6221 5.36998C18.7186 5.12836 18.7545 4.86678 18.7266 4.6081C18.6987 4.34942 18.6078 4.10151 18.462 3.88604C18.3161 3.67058 18.1197 3.49411 17.8899 3.37208C17.6602 3.25004 17.404 3.18615 17.1438 3.18599H3.89965L3.48388 1.73318C3.34134 1.23421 3.04025 0.7952 2.62611 0.482512C2.21197 0.169824 1.7073 0.000452996 1.18837 0H0.796496ZM6.01196 10.5727L4.35524 4.77898H17.1422L14.7941 10.6508C14.735 10.7984 14.6329 10.925 14.5012 11.0141C14.3695 11.1033 14.214 11.1509 14.055 11.151H6.77659C6.60364 11.1507 6.43548 11.0941 6.29753 10.9897C6.15959 10.8854 6.05934 10.739 6.01196 10.5727V10.5727ZM7.16847 19.1159C7.48226 19.1159 7.79298 19.0541 8.08289 18.934C8.37279 18.8139 8.63621 18.6379 8.85809 18.416C9.07998 18.1942 9.25599 17.9307 9.37607 17.6408C9.49615 17.3509 9.55796 17.0402 9.55796 16.7264C9.55796 16.4126 9.49615 16.1019 9.37607 15.812C9.25599 15.5221 9.07998 15.2587 8.85809 15.0368C8.63621 14.8149 8.37279 14.6389 8.08289 14.5188C7.79298 14.3987 7.48226 14.3369 7.16847 14.3369C6.53474 14.3369 5.92696 14.5887 5.47884 15.0368C5.03073 15.4849 4.77898 16.0927 4.77898 16.7264C4.77898 17.3602 5.03073 17.9679 5.47884 18.416C5.92696 18.8642 6.53474 19.1159 7.16847 19.1159V19.1159ZM7.16847 17.5229C6.95722 17.5229 6.75463 17.439 6.60526 17.2896C6.45589 17.1403 6.37197 16.9377 6.37197 16.7264C6.37197 16.5152 6.45589 16.3126 6.60526 16.1632C6.75463 16.0138 6.95722 15.9299 7.16847 15.9299C7.37971 15.9299 7.5823 16.0138 7.73168 16.1632C7.88105 16.3126 7.96496 16.5152 7.96496 16.7264C7.96496 16.9377 7.88105 17.1403 7.73168 17.2896C7.5823 17.439 7.37971 17.5229 7.16847 17.5229ZM13.5404 19.1159C13.8542 19.1159 14.165 19.0541 14.4549 18.934C14.7448 18.8139 15.0082 18.6379 15.2301 18.416C15.4519 18.1942 15.628 17.9307 15.748 17.6408C15.8681 17.3509 15.9299 17.0402 15.9299 16.7264C15.9299 16.4126 15.8681 16.1019 15.748 15.812C15.628 15.5221 15.4519 15.2587 15.2301 15.0368C15.0082 14.8149 14.7448 14.6389 14.4549 14.5188C14.165 14.3987 13.8542 14.3369 13.5404 14.3369C12.9067 14.3369 12.2989 14.5887 11.8508 15.0368C11.4027 15.4849 11.151 16.0927 11.151 16.7264C11.151 17.3602 11.4027 17.9679 11.8508 18.416C12.2989 18.8642 12.9067 19.1159 13.5404 19.1159V19.1159ZM13.5404 17.5229C13.3292 17.5229 13.1266 17.439 12.9772 17.2896C12.8279 17.1403 12.7439 16.9377 12.7439 16.7264C12.7439 16.5152 12.8279 16.3126 12.9772 16.1632C13.1266 16.0138 13.3292 15.9299 13.5404 15.9299C13.7517 15.9299 13.9543 16.0138 14.1036 16.1632C14.253 16.3126 14.3369 16.5152 14.3369 16.7264C14.3369 16.9377 14.253 17.1403 14.1036 17.2896C13.9543 17.439 13.7517 17.5229 13.5404 17.5229Z" fill="#111111"/>
</svg>
